<svg width="145" height="41" xmlns="http://www.w3.org/2000/svg" xmlns:xlink="http://www.w3.org/1999/xlink"><defs><path d="M1.025.05a.847.847 0 00-.847.848v7.9c0 .28.138.54.368.699l4.537 3.11c.288.198.67.198.958 0l4.536-3.11a.849.849 0 00.368-.699v-7.9a.847.847 0 00-.847-.847H1.025z" id="a"/><path id="d" d="M0 .132h17.835v27.633H0z"/><path id="f" d="M.032.182h19.452V40.42H.032z"/><linearGradient x1="-.001%" y1="50%" x2="99.999%" y2="50%" id="b"><stop stop-color="#4DBCB3" offset="0%"/><stop stop-color="#00A8C8" offset="100%"/></linearGradient></defs><g fill="none" fill-rule="evenodd"><g transform="translate(66.793 5.551)"><mask id="c" fill="#fff"><use xlink:href="#a"/></mask><path d="M1.025.05a.847.847 0 00-.847.848v7.9c0 .28.138.54.368.699l4.537 3.11c.288.198.67.198.958 0l4.536-3.11a.849.849 0 00.368-.699v-7.9a.847.847 0 00-.847-.847H1.025z" fill="url(#b)" mask="url(#c)"/></g><path d="M28.538 23.693a5.133 5.133 0 01.66-2.194c.774-1.332 2.473-1.559 3.57-.467.608.604 1.095 1.38 1.452 2.159.97 2.113 1.315 4.384 1.526 6.67.165 1.792.289 3.593-.12 5.371a5.916 5.916 0 01-.6 1.587c-.927 1.614-2.916 1.974-4.388.792-1.366-1.096-2.05-2.568-2.124-4.263-.071-1.607-.016-3.22-.016-4.829.002-.51.04-4.826.04-4.826m42.522 14.67a2.78 2.78 0 00-.855-.837c-.927-.576-1.583-1.371-2.184-2.248-1.524-2.22-3.086-4.415-4.632-6.62-.117-.168-.227-.34-.34-.51.533-.379 1.055-.711 1.532-1.096 1.604-1.295 2.919-2.79 3.32-4.863.326-1.686-.472-3.184-1.95-3.713-2.082-.746-3.953-.01-4.91 1.939-.168.34-.31.693-.462 1.041-.385.889-.721 1.801-1.162 2.662-1.06 2.07-2.848 3.062-5.241 3.227v-.705c0-6.33.001-18.346-.002-24.676 0-1.104-.69-1.592-1.762-1.255-.22.069-.432.17-.643.265-2.17.974-4.322 1.988-6.514 2.914-1.871.79-1.993 1.547-.516 2.86.876.778 1.22 1.729 1.215 2.888-.017 3.92-.022 9.946-.019 15.516-1.195-.523-2.387-1.16-3.462-1.932-2.209-3.704-6.597-5.404-10.573-4.96a7.647 7.647 0 00-3.417 1.23v-.72c0-3.58.001-12.85-.003-16.431 0-.264-.01-.532-.056-.792-.127-.713-.6-1.034-1.338-.914a2.476 2.476 0 00-.614.169c-2.542 1.137-5.087 2.268-7.615 3.434-.993.457-1.123 1.34-.367 2.123.266.276.552.534.838.791.652.588.954 1.31.953 2.176-.005 6.65-.006 18.99 0 25.64 0 .872-.276 1.632-.832 2.308-.279.34-.577.673-.795 1.049-.563.97-.12 1.7 1.015 1.709 2.14.014 4.28.024 6.42.034 1.266.006 1.434-.149 1.524-1.35.863.442 1.673.99 2.57 1.294 3.96 1.343 8.804-.253 11.358-3.666 2.054-2.746 2.697-5.826 2.278-9.15a11.23 11.23 0 00-.117-.717c.73.507 1.484.957 2.236 1.355.002 2.57.007 4.94.014 6.822.004 1.08-.301 2-1.018 2.818-.275.312-.541.657-.705 1.032-.391.896.038 1.52 1.028 1.524 3.27.01 6.538.01 9.807 0 1.068-.002 1.515-.74.98-1.649-.237-.404-.643-.714-.892-1.114-.357-.572-.862-1.17-.91-1.788-.128-1.617-.044-3.25-.044-4.9.733-.076 1.444-.166 2.158-.209.146-.009.36.127.447.258 1.25 1.873 2.482 3.758 3.723 5.638.282.427.232.813-.094 1.197-.235.276-.488.55-.66.862-.527.97-.067 1.705 1.054 1.708 1.906.005 3.813.002 5.72.002 1.187 0 2.374.007 3.56-.003 1.051-.01 1.512-.791.954-1.668" fill="#07243E"/><g transform="translate(0 12.718)"><mask id="e" fill="#fff"><use xlink:href="#d"/></mask><path d="M17.35 19.993c-.441-.169-.809-.008-1.109.293-.214.216-.37.486-.57.717-.767.882-2.282 1.322-3.287.91-1.124-.462-1.354-1.423-1.352-2.485V8.944h3.867c1.752 0 1.982-.238 1.89-1.95-.038-.715-.4-1.066-1.145-1.072-1.323-.01-2.646-.003-3.97-.003h-.643c0-1.527.035-2.968-.023-4.405-.015-.364-.228-.852-.517-1.05-1.112-.76-2.688-.143-3.035 1.12-.762 2.773-2.804 4.32-5.723 4.335-1.6.008-1.756.166-1.73 1.744v.057c.022.866.359 1.203 1.241 1.221.497.01.994.002 1.54.002v.822c.024 3.658-.028 7.318.097 10.972.078 2.291.916 4.352 2.924 5.752 1.797 1.252 3.84 1.455 5.967 1.15 3.426-.492 6.004-3.354 6.062-6.71.008-.403-.04-.766-.484-.936" fill="#07243E" mask="url(#e)"/></g><g transform="translate(112.947 .105)"><mask id="g" fill="#fff"><use xlink:href="#f"/></mask><path d="M12.273 30.445c0 2.268-.592 3.821-2.572 3.821-1.883 0-2.571-1.564-2.571-3.678V9.933c0-2.034.603-3.645 2.571-3.645 1.932 0 2.572 1.43 2.572 3.55v20.607zM9.786.182C3.131.182.032 4.526.032 10.614v18.819c0 5.71 1.824 10.987 9.456 10.987 8.083 0 9.996-5.217 9.996-11.035v-18.83c0-5.513-2.7-10.373-9.698-10.373z" fill="#03BEC2" mask="url(#g)"/></g><path fill="#03BEC2" d="M97.568.568v6.57h3.524v32.894h7.138V.568h-7.138zm38.418 32.036v1.983l3.672 1.936v.023l-3.672 1.936v1.983l5.42-3.074h2.91v-1.713h-2.91zm6.758-2.874h-1.866v-4.107h-1.572v4.106h-1.748v-4.282h-1.572v5.996h8.33v-5.996h-1.572zm-4.646-9.523l3.25-1.15v2.324l-3.25-1.15v-.024zm-2.112.892l8.33 3.133v-1.795l-1.431-.505v-3.426l1.431-.505V16.16l-8.33 3.133V21.1zm3.602-7.796h-2.03v-2.065c0-.716.422-1.068 1.033-1.068.61 0 .997.352.997 1.068v2.065zm-.997-4.846c-1.526 0-2.605.962-2.605 2.78v3.779h8.33v-1.713h-3.156V11.66l3.156-1.56V8.117l-3.344 1.818c-.399-.974-1.279-1.478-2.381-1.478zm-.211-1.667c3.261 0 1.97-4.458 3.613-4.458.61 0 .962.552.962 1.467 0 1.08-.598 1.572-1.279 1.619v1.69c1.373-.048 2.804-.904 2.804-3.215 0-1.983-1.056-3.298-2.546-3.298-3.309 0-1.994 4.506-3.66 4.506-.54 0-.939-.516-.939-1.326 0-.891.528-1.408 1.255-1.443V.654c-1.501.047-2.78 1.15-2.78 3.098 0 1.924 1.161 3.039 2.57 3.039"/></g></svg>