<?xml version="1.0" encoding="UTF-8"?>
<svg xmlns="http://www.w3.org/2000/svg" xmlns:xlink="http://www.w3.org/1999/xlink" width="1007.000000" height="676.000000" font-size="8.000000pt" font-family="Helvetica" fill="#000000"><polygon points="510.500000,100.500000 510.500000,56.500000 558.500000,80.500000 558.500000,124.500000 " fill="#ffaa22" stroke="#000000" stroke-width="1"/><polygon points="606.500000,100.500000 606.500000,56.500000 558.500000,80.500000 558.500000,124.500000 " fill="#cc7700" stroke="#000000" stroke-width="1"/><polygon points="510.500000,56.500000 558.500000,32.500000 606.500000,56.500000 558.500000,80.500000 " fill="#ffdd55" stroke="#000000" stroke-width="1"/><polygon points="510.500000,100.500000 510.500000,80.500000 558.500000,104.500000 558.500000,124.500000 " fill="#dd2222" stroke="#000000" stroke-width="1"/><polygon points="606.500000,100.500000 606.500000,80.500000 558.500000,104.500000 558.500000,124.500000 " fill="#aa0000" stroke="#000000" stroke-width="1"/><polygon points="598.500000,120.500000 598.500000,44.500000 622.500000,56.500000 622.500000,132.500000 " fill="#ffaa22" stroke="#000000" stroke-width="1"/><polygon points="646.500000,120.500000 646.500000,44.500000 622.500000,56.500000 622.500000,132.500000 " fill="#cc7700" stroke="#000000" stroke-width="1"/><polygon points="598.500000,44.500000 622.500000,32.500000 646.500000,44.500000 622.500000,56.500000 " fill="#ffdd55" stroke="#000000" stroke-width="1"/><polygon points="598.500000,120.500000 598.500000,96.500000 622.500000,108.500000 622.500000,132.500000 " fill="#dd2222" stroke="#000000" stroke-width="1"/><polygon points="646.500000,120.500000 646.500000,96.500000 622.500000,108.500000 622.500000,132.500000 " fill="#aa0000" stroke="#000000" stroke-width="1"/><polygon points="470.500000,120.500000 470.500000,120.500000 494.500000,132.500000 494.500000,132.500000 " fill="#999999" stroke="#000000" stroke-width="1"/><polygon points="518.500000,120.500000 518.500000,120.500000 494.500000,132.500000 494.500000,132.500000 " fill="#666666" stroke="#000000" stroke-width="1"/><polygon points="470.500000,120.500000 494.500000,108.500000 518.500000,120.500000 494.500000,132.500000 " fill="#cccccc" stroke="#000000" stroke-width="1"/><polygon points="502.500000,136.500000 502.500000,112.500000 526.500000,124.500000 526.500000,148.500000 " fill="#ffaa22" stroke="#000000" stroke-width="1"/><polygon points="550.500000,136.500000 550.500000,112.500000 526.500000,124.500000 526.500000,148.500000 " fill="#cc7700" stroke="#000000" stroke-width="1"/><polygon points="502.500000,112.500000 526.500000,100.500000 550.500000,112.500000 526.500000,124.500000 " fill="#ffdd55" stroke="#000000" stroke-width="1"/><polygon points="566.500000,136.500000 566.500000,136.500000 590.500000,148.500000 590.500000,148.500000 " fill="#999999" stroke="#000000" stroke-width="1"/><polygon points="614.500000,136.500000 614.500000,136.500000 590.500000,148.500000 590.500000,148.500000 " fill="#666666" stroke="#000000" stroke-width="1"/><polygon points="566.500000,136.500000 590.500000,124.500000 614.500000,136.500000 590.500000,148.500000 " fill="#cccccc" stroke="#000000" stroke-width="1"/><polygon points="438.500000,136.500000 438.500000,136.500000 462.500000,148.500000 462.500000,148.500000 " fill="#999999" stroke="#000000" stroke-width="1"/><polygon points="486.500000,136.500000 486.500000,136.500000 462.500000,148.500000 462.500000,148.500000 " fill="#666666" stroke="#000000" stroke-width="1"/><polygon points="438.500000,136.500000 462.500000,124.500000 486.500000,136.500000 462.500000,148.500000 " fill="#cccccc" stroke="#000000" stroke-width="1"/><polygon points="630.500000,136.500000 630.500000,136.500000 654.500000,148.500000 654.500000,148.500000 " fill="#999999" stroke="#000000" stroke-width="1"/><polygon points="678.500000,136.500000 678.500000,136.500000 654.500000,148.500000 654.500000,148.500000 " fill="#666666" stroke="#000000" stroke-width="1"/><polygon points="630.500000,136.500000 654.500000,124.500000 678.500000,136.500000 654.500000,148.500000 " fill="#cccccc" stroke="#000000" stroke-width="1"/><polygon points="534.500000,152.500000 534.500000,148.500000 558.500000,160.500000 558.500000,164.500000 " fill="#ffaa22" stroke="#000000" stroke-width="1"/><polygon points="582.500000,152.500000 582.500000,148.500000 558.500000,160.500000 558.500000,164.500000 " fill="#cc7700" stroke="#000000" stroke-width="1"/><polygon points="534.500000,148.500000 558.500000,136.500000 582.500000,148.500000 558.500000,160.500000 " fill="#ffdd55" stroke="#000000" stroke-width="1"/><polygon points="470.500000,152.500000 470.500000,152.500000 494.500000,164.500000 494.500000,164.500000 " fill="#999999" stroke="#000000" stroke-width="1"/><polygon points="518.500000,152.500000 518.500000,152.500000 494.500000,164.500000 494.500000,164.500000 " fill="#666666" stroke="#000000" stroke-width="1"/><polygon points="470.500000,152.500000 494.500000,140.500000 518.500000,152.500000 494.500000,164.500000 " fill="#cccccc" stroke="#000000" stroke-width="1"/><polygon points="598.500000,152.500000 598.500000,148.500000 622.500000,160.500000 622.500000,164.500000 " fill="#dd2222" stroke="#000000" stroke-width="1"/><polygon points="646.500000,152.500000 646.500000,148.500000 622.500000,160.500000 622.500000,164.500000 " fill="#aa0000" stroke="#000000" stroke-width="1"/><polygon points="598.500000,148.500000 622.500000,136.500000 646.500000,148.500000 622.500000,160.500000 " fill="#ff5555" stroke="#000000" stroke-width="1"/><polygon points="406.500000,152.500000 406.500000,152.500000 430.500000,164.500000 430.500000,164.500000 " fill="#999999" stroke="#000000" stroke-width="1"/><polygon points="454.500000,152.500000 454.500000,152.500000 430.500000,164.500000 430.500000,164.500000 " fill="#666666" stroke="#000000" stroke-width="1"/><polygon points="406.500000,152.500000 430.500000,140.500000 454.500000,152.500000 430.500000,164.500000 " fill="#cccccc" stroke="#000000" stroke-width="1"/><polygon points="662.500000,152.500000 662.500000,152.500000 686.500000,164.500000 686.500000,164.500000 " fill="#999999" stroke="#000000" stroke-width="1"/><polygon points="710.500000,152.500000 710.500000,152.500000 686.500000,164.500000 686.500000,164.500000 " fill="#666666" stroke="#000000" stroke-width="1"/><polygon points="662.500000,152.500000 686.500000,140.500000 710.500000,152.500000 686.500000,164.500000 " fill="#cccccc" stroke="#000000" stroke-width="1"/><polygon points="502.500000,168.500000 502.500000,168.500000 526.500000,180.500000 526.500000,180.500000 " fill="#999999" stroke="#000000" stroke-width="1"/><polygon points="550.500000,168.500000 550.500000,168.500000 526.500000,180.500000 526.500000,180.500000 " fill="#666666" stroke="#000000" stroke-width="1"/><polygon points="502.500000,168.500000 526.500000,156.500000 550.500000,168.500000 526.500000,180.500000 " fill="#cccccc" stroke="#000000" stroke-width="1"/><polygon points="566.500000,168.500000 566.500000,168.500000 590.500000,180.500000 590.500000,180.500000 " fill="#999999" stroke="#000000" stroke-width="1"/><polygon points="614.500000,168.500000 614.500000,168.500000 590.500000,180.500000 590.500000,180.500000 " fill="#666666" stroke="#000000" stroke-width="1"/><polygon points="566.500000,168.500000 590.500000,156.500000 614.500000,168.500000 590.500000,180.500000 " fill="#cccccc" stroke="#000000" stroke-width="1"/><polygon points="438.500000,168.500000 438.500000,168.500000 462.500000,180.500000 462.500000,180.500000 " fill="#999999" stroke="#000000" stroke-width="1"/><polygon points="486.500000,168.500000 486.500000,168.500000 462.500000,180.500000 462.500000,180.500000 " fill="#666666" stroke="#000000" stroke-width="1"/><polygon points="438.500000,168.500000 462.500000,156.500000 486.500000,168.500000 462.500000,180.500000 " fill="#cccccc" stroke="#000000" stroke-width="1"/><polygon points="630.500000,168.500000 630.500000,168.500000 654.500000,180.500000 654.500000,180.500000 " fill="#999999" stroke="#000000" stroke-width="1"/><polygon points="678.500000,168.500000 678.500000,168.500000 654.500000,180.500000 654.500000,180.500000 " fill="#666666" stroke="#000000" stroke-width="1"/><polygon points="630.500000,168.500000 654.500000,156.500000 678.500000,168.500000 654.500000,180.500000 " fill="#cccccc" stroke="#000000" stroke-width="1"/><polygon points="374.500000,168.500000 374.500000,168.500000 398.500000,180.500000 398.500000,180.500000 " fill="#999999" stroke="#000000" stroke-width="1"/><polygon points="422.500000,168.500000 422.500000,168.500000 398.500000,180.500000 398.500000,180.500000 " fill="#666666" stroke="#000000" stroke-width="1"/><polygon points="374.500000,168.500000 398.500000,156.500000 422.500000,168.500000 398.500000,180.500000 " fill="#cccccc" stroke="#000000" stroke-width="1"/><polygon points="694.500000,168.500000 694.500000,168.500000 718.500000,180.500000 718.500000,180.500000 " fill="#999999" stroke="#000000" stroke-width="1"/><polygon points="742.500000,168.500000 742.500000,168.500000 718.500000,180.500000 718.500000,180.500000 " fill="#666666" stroke="#000000" stroke-width="1"/><polygon points="694.500000,168.500000 718.500000,156.500000 742.500000,168.500000 718.500000,180.500000 " fill="#cccccc" stroke="#000000" stroke-width="1"/><polygon points="534.500000,184.500000 534.500000,184.500000 558.500000,196.500000 558.500000,196.500000 " fill="#999999" stroke="#000000" stroke-width="1"/><polygon points="582.500000,184.500000 582.500000,184.500000 558.500000,196.500000 558.500000,196.500000 " fill="#666666" stroke="#000000" stroke-width="1"/><polygon points="534.500000,184.500000 558.500000,172.500000 582.500000,184.500000 558.500000,196.500000 " fill="#cccccc" stroke="#000000" stroke-width="1"/><polygon points="470.500000,184.500000 470.500000,184.500000 494.500000,196.500000 494.500000,196.500000 " fill="#999999" stroke="#000000" stroke-width="1"/><polygon points="518.500000,184.500000 518.500000,184.500000 494.500000,196.500000 494.500000,196.500000 " fill="#666666" stroke="#000000" stroke-width="1"/><polygon points="470.500000,184.500000 494.500000,172.500000 518.500000,184.500000 494.500000,196.500000 " fill="#cccccc" stroke="#000000" stroke-width="1"/><polygon points="598.500000,184.500000 598.500000,184.500000 622.500000,196.500000 622.500000,196.500000 " fill="#999999" stroke="#000000" stroke-width="1"/><polygon points="646.500000,184.500000 646.500000,184.500000 622.500000,196.500000 622.500000,196.500000 " fill="#666666" stroke="#000000" stroke-width="1"/><polygon points="598.500000,184.500000 622.500000,172.500000 646.500000,184.500000 622.500000,196.500000 " fill="#cccccc" stroke="#000000" stroke-width="1"/><polygon points="406.500000,184.500000 406.500000,184.500000 430.500000,196.500000 430.500000,196.500000 " fill="#999999" stroke="#000000" stroke-width="1"/><polygon points="454.500000,184.500000 454.500000,184.500000 430.500000,196.500000 430.500000,196.500000 " fill="#666666" stroke="#000000" stroke-width="1"/><polygon points="406.500000,184.500000 430.500000,172.500000 454.500000,184.500000 430.500000,196.500000 " fill="#cccccc" stroke="#000000" stroke-width="1"/><polygon points="662.500000,184.500000 662.500000,184.500000 686.500000,196.500000 686.500000,196.500000 " fill="#999999" stroke="#000000" stroke-width="1"/><polygon points="710.500000,184.500000 710.500000,184.500000 686.500000,196.500000 686.500000,196.500000 " fill="#666666" stroke="#000000" stroke-width="1"/><polygon points="662.500000,184.500000 686.500000,172.500000 710.500000,184.500000 686.500000,196.500000 " fill="#cccccc" stroke="#000000" stroke-width="1"/><polygon points="342.500000,184.500000 342.500000,184.500000 366.500000,196.500000 366.500000,196.500000 " fill="#999999" stroke="#000000" stroke-width="1"/><polygon points="390.500000,184.500000 390.500000,184.500000 366.500000,196.500000 366.500000,196.500000 " fill="#666666" stroke="#000000" stroke-width="1"/><polygon points="342.500000,184.500000 366.500000,172.500000 390.500000,184.500000 366.500000,196.500000 " fill="#cccccc" stroke="#000000" stroke-width="1"/><polygon points="726.500000,184.500000 726.500000,184.500000 750.500000,196.500000 750.500000,196.500000 " fill="#999999" stroke="#000000" stroke-width="1"/><polygon points="774.500000,184.500000 774.500000,184.500000 750.500000,196.500000 750.500000,196.500000 " fill="#666666" stroke="#000000" stroke-width="1"/><polygon points="726.500000,184.500000 750.500000,172.500000 774.500000,184.500000 750.500000,196.500000 " fill="#cccccc" stroke="#000000" stroke-width="1"/><polygon points="502.500000,200.500000 502.500000,200.500000 526.500000,212.500000 526.500000,212.500000 " fill="#999999" stroke="#000000" stroke-width="1"/><polygon points="550.500000,200.500000 550.500000,200.500000 526.500000,212.500000 526.500000,212.500000 " fill="#666666" stroke="#000000" stroke-width="1"/><polygon points="502.500000,200.500000 526.500000,188.500000 550.500000,200.500000 526.500000,212.500000 " fill="#cccccc" stroke="#000000" stroke-width="1"/><polygon points="566.500000,200.500000 566.500000,200.500000 590.500000,212.500000 590.500000,212.500000 " fill="#999999" stroke="#000000" stroke-width="1"/><polygon points="614.500000,200.500000 614.500000,200.500000 590.500000,212.500000 590.500000,212.500000 " fill="#666666" stroke="#000000" stroke-width="1"/><polygon points="566.500000,200.500000 590.500000,188.500000 614.500000,200.500000 590.500000,212.500000 " fill="#cccccc" stroke="#000000" stroke-width="1"/><polygon points="438.500000,200.500000 438.500000,200.500000 462.500000,212.500000 462.500000,212.500000 " fill="#999999" stroke="#000000" stroke-width="1"/><polygon points="486.500000,200.500000 486.500000,200.500000 462.500000,212.500000 462.500000,212.500000 " fill="#666666" stroke="#000000" stroke-width="1"/><polygon points="438.500000,200.500000 462.500000,188.500000 486.500000,200.500000 462.500000,212.500000 " fill="#cccccc" stroke="#000000" stroke-width="1"/><polygon points="630.500000,200.500000 630.500000,200.500000 654.500000,212.500000 654.500000,212.500000 " fill="#999999" stroke="#000000" stroke-width="1"/><polygon points="678.500000,200.500000 678.500000,200.500000 654.500000,212.500000 654.500000,212.500000 " fill="#666666" stroke="#000000" stroke-width="1"/><polygon points="630.500000,200.500000 654.500000,188.500000 678.500000,200.500000 654.500000,212.500000 " fill="#cccccc" stroke="#000000" stroke-width="1"/><polygon points="374.500000,200.500000 374.500000,200.500000 398.500000,212.500000 398.500000,212.500000 " fill="#999999" stroke="#000000" stroke-width="1"/><polygon points="422.500000,200.500000 422.500000,200.500000 398.500000,212.500000 398.500000,212.500000 " fill="#666666" stroke="#000000" stroke-width="1"/><polygon points="374.500000,200.500000 398.500000,188.500000 422.500000,200.500000 398.500000,212.500000 " fill="#cccccc" stroke="#000000" stroke-width="1"/><polygon points="694.500000,200.500000 694.500000,200.500000 718.500000,212.500000 718.500000,212.500000 " fill="#999999" stroke="#000000" stroke-width="1"/><polygon points="742.500000,200.500000 742.500000,200.500000 718.500000,212.500000 718.500000,212.500000 " fill="#666666" stroke="#000000" stroke-width="1"/><polygon points="694.500000,200.500000 718.500000,188.500000 742.500000,200.500000 718.500000,212.500000 " fill="#cccccc" stroke="#000000" stroke-width="1"/><polygon points="310.500000,200.500000 310.500000,200.500000 334.500000,212.500000 334.500000,212.500000 " fill="#999999" stroke="#000000" stroke-width="1"/><polygon points="358.500000,200.500000 358.500000,200.500000 334.500000,212.500000 334.500000,212.500000 " fill="#666666" stroke="#000000" stroke-width="1"/><polygon points="310.500000,200.500000 334.500000,188.500000 358.500000,200.500000 334.500000,212.500000 " fill="#cccccc" stroke="#000000" stroke-width="1"/><polygon points="758.500000,200.500000 758.500000,200.500000 782.500000,212.500000 782.500000,212.500000 " fill="#999999" stroke="#000000" stroke-width="1"/><polygon points="806.500000,200.500000 806.500000,200.500000 782.500000,212.500000 782.500000,212.500000 " fill="#666666" stroke="#000000" stroke-width="1"/><polygon points="758.500000,200.500000 782.500000,188.500000 806.500000,200.500000 782.500000,212.500000 " fill="#cccccc" stroke="#000000" stroke-width="1"/><polygon points="534.500000,216.500000 534.500000,216.500000 558.500000,228.500000 558.500000,228.500000 " fill="#999999" stroke="#000000" stroke-width="1"/><polygon points="582.500000,216.500000 582.500000,216.500000 558.500000,228.500000 558.500000,228.500000 " fill="#666666" stroke="#000000" stroke-width="1"/><polygon points="534.500000,216.500000 558.500000,204.500000 582.500000,216.500000 558.500000,228.500000 " fill="#cccccc" stroke="#000000" stroke-width="1"/><polygon points="470.500000,216.500000 470.500000,216.500000 494.500000,228.500000 494.500000,228.500000 " fill="#999999" stroke="#000000" stroke-width="1"/><polygon points="518.500000,216.500000 518.500000,216.500000 494.500000,228.500000 494.500000,228.500000 " fill="#666666" stroke="#000000" stroke-width="1"/><polygon points="470.500000,216.500000 494.500000,204.500000 518.500000,216.500000 494.500000,228.500000 " fill="#cccccc" stroke="#000000" stroke-width="1"/><polygon points="598.500000,216.500000 598.500000,216.500000 622.500000,228.500000 622.500000,228.500000 " fill="#999999" stroke="#000000" stroke-width="1"/><polygon points="646.500000,216.500000 646.500000,216.500000 622.500000,228.500000 622.500000,228.500000 " fill="#666666" stroke="#000000" stroke-width="1"/><polygon points="598.500000,216.500000 622.500000,204.500000 646.500000,216.500000 622.500000,228.500000 " fill="#cccccc" stroke="#000000" stroke-width="1"/><polygon points="406.500000,216.500000 406.500000,216.500000 430.500000,228.500000 430.500000,228.500000 " fill="#999999" stroke="#000000" stroke-width="1"/><polygon points="454.500000,216.500000 454.500000,216.500000 430.500000,228.500000 430.500000,228.500000 " fill="#666666" stroke="#000000" stroke-width="1"/><polygon points="406.500000,216.500000 430.500000,204.500000 454.500000,216.500000 430.500000,228.500000 " fill="#cccccc" stroke="#000000" stroke-width="1"/><polygon points="662.500000,216.500000 662.500000,216.500000 686.500000,228.500000 686.500000,228.500000 " fill="#999999" stroke="#000000" stroke-width="1"/><polygon points="710.500000,216.500000 710.500000,216.500000 686.500000,228.500000 686.500000,228.500000 " fill="#666666" stroke="#000000" stroke-width="1"/><polygon points="662.500000,216.500000 686.500000,204.500000 710.500000,216.500000 686.500000,228.500000 " fill="#cccccc" stroke="#000000" stroke-width="1"/><polygon points="342.500000,216.500000 342.500000,216.500000 366.500000,228.500000 366.500000,228.500000 " fill="#999999" stroke="#000000" stroke-width="1"/><polygon points="390.500000,216.500000 390.500000,216.500000 366.500000,228.500000 366.500000,228.500000 " fill="#666666" stroke="#000000" stroke-width="1"/><polygon points="342.500000,216.500000 366.500000,204.500000 390.500000,216.500000 366.500000,228.500000 " fill="#cccccc" stroke="#000000" stroke-width="1"/><polygon points="726.500000,216.500000 726.500000,212.500000 750.500000,224.500000 750.500000,228.500000 " fill="#ffaa22" stroke="#000000" stroke-width="1"/><polygon points="774.500000,216.500000 774.500000,212.500000 750.500000,224.500000 750.500000,228.500000 " fill="#cc7700" stroke="#000000" stroke-width="1"/><polygon points="726.500000,212.500000 750.500000,200.500000 774.500000,212.500000 750.500000,224.500000 " fill="#ffdd55" stroke="#000000" stroke-width="1"/><polygon points="278.500000,216.500000 278.500000,216.500000 302.500000,228.500000 302.500000,228.500000 " fill="#999999" stroke="#000000" stroke-width="1"/><polygon points="326.500000,216.500000 326.500000,216.500000 302.500000,228.500000 302.500000,228.500000 " fill="#666666" stroke="#000000" stroke-width="1"/><polygon points="278.500000,216.500000 302.500000,204.500000 326.500000,216.500000 302.500000,228.500000 " fill="#cccccc" stroke="#000000" stroke-width="1"/><polygon points="790.500000,216.500000 790.500000,204.500000 814.500000,216.500000 814.500000,228.500000 " fill="#ffaa22" stroke="#000000" stroke-width="1"/><polygon points="838.500000,216.500000 838.500000,204.500000 814.500000,216.500000 814.500000,228.500000 " fill="#cc7700" stroke="#000000" stroke-width="1"/><polygon points="790.500000,204.500000 814.500000,192.500000 838.500000,204.500000 814.500000,216.500000 " fill="#ffdd55" stroke="#000000" stroke-width="1"/><polygon points="790.500000,216.500000 790.500000,208.500000 814.500000,220.500000 814.500000,228.500000 " fill="#dd2222" stroke="#000000" stroke-width="1"/><polygon points="838.500000,216.500000 838.500000,208.500000 814.500000,220.500000 814.500000,228.500000 " fill="#aa0000" stroke="#000000" stroke-width="1"/><polygon points="502.500000,232.500000 502.500000,232.500000 526.500000,244.500000 526.500000,244.500000 " fill="#999999" stroke="#000000" stroke-width="1"/><polygon points="550.500000,232.500000 550.500000,232.500000 526.500000,244.500000 526.500000,244.500000 " fill="#666666" stroke="#000000" stroke-width="1"/><polygon points="502.500000,232.500000 526.500000,220.500000 550.500000,232.500000 526.500000,244.500000 " fill="#cccccc" stroke="#000000" stroke-width="1"/><polygon points="566.500000,232.500000 566.500000,232.500000 590.500000,244.500000 590.500000,244.500000 " fill="#999999" stroke="#000000" stroke-width="1"/><polygon points="614.500000,232.500000 614.500000,232.500000 590.500000,244.500000 590.500000,244.500000 " fill="#666666" stroke="#000000" stroke-width="1"/><polygon points="566.500000,232.500000 590.500000,220.500000 614.500000,232.500000 590.500000,244.500000 " fill="#cccccc" stroke="#000000" stroke-width="1"/><polygon points="438.500000,232.500000 438.500000,232.500000 462.500000,244.500000 462.500000,244.500000 " fill="#999999" stroke="#000000" stroke-width="1"/><polygon points="486.500000,232.500000 486.500000,232.500000 462.500000,244.500000 462.500000,244.500000 " fill="#666666" stroke="#000000" stroke-width="1"/><polygon points="438.500000,232.500000 462.500000,220.500000 486.500000,232.500000 462.500000,244.500000 " fill="#cccccc" stroke="#000000" stroke-width="1"/><polygon points="630.500000,232.500000 630.500000,232.500000 654.500000,244.500000 654.500000,244.500000 " fill="#999999" stroke="#000000" stroke-width="1"/><polygon points="678.500000,232.500000 678.500000,232.500000 654.500000,244.500000 654.500000,244.500000 " fill="#666666" stroke="#000000" stroke-width="1"/><polygon points="630.500000,232.500000 654.500000,220.500000 678.500000,232.500000 654.500000,244.500000 " fill="#cccccc" stroke="#000000" stroke-width="1"/><polygon points="374.500000,232.500000 374.500000,232.500000 398.500000,244.500000 398.500000,244.500000 " fill="#999999" stroke="#000000" stroke-width="1"/><polygon points="422.500000,232.500000 422.500000,232.500000 398.500000,244.500000 398.500000,244.500000 " fill="#666666" stroke="#000000" stroke-width="1"/><polygon points="374.500000,232.500000 398.500000,220.500000 422.500000,232.500000 398.500000,244.500000 " fill="#cccccc" stroke="#000000" stroke-width="1"/><polygon points="694.500000,232.500000 694.500000,232.500000 718.500000,244.500000 718.500000,244.500000 " fill="#999999" stroke="#000000" stroke-width="1"/><polygon points="742.500000,232.500000 742.500000,232.500000 718.500000,244.500000 718.500000,244.500000 " fill="#666666" stroke="#000000" stroke-width="1"/><polygon points="694.500000,232.500000 718.500000,220.500000 742.500000,232.500000 718.500000,244.500000 " fill="#cccccc" stroke="#000000" stroke-width="1"/><polygon points="310.500000,232.500000 310.500000,224.500000 334.500000,236.500000 334.500000,244.500000 " fill="#ffaa22" stroke="#000000" stroke-width="1"/><polygon points="358.500000,232.500000 358.500000,224.500000 334.500000,236.500000 334.500000,244.500000 " fill="#cc7700" stroke="#000000" stroke-width="1"/><polygon points="310.500000,224.500000 334.500000,212.500000 358.500000,224.500000 334.500000,236.500000 " fill="#ffdd55" stroke="#000000" stroke-width="1"/><polygon points="310.500000,232.500000 310.500000,228.500000 334.500000,240.500000 334.500000,244.500000 " fill="#dd2222" stroke="#000000" stroke-width="1"/><polygon points="358.500000,232.500000 358.500000,228.500000 334.500000,240.500000 334.500000,244.500000 " fill="#aa0000" stroke="#000000" stroke-width="1"/><polygon points="758.500000,232.500000 758.500000,212.500000 782.500000,224.500000 782.500000,244.500000 " fill="#ffaa22" stroke="#000000" stroke-width="1"/><polygon points="806.500000,232.500000 806.500000,212.500000 782.500000,224.500000 782.500000,244.500000 " fill="#cc7700" stroke="#000000" stroke-width="1"/><polygon points="758.500000,212.500000 782.500000,200.500000 806.500000,212.500000 782.500000,224.500000 " fill="#ffdd55" stroke="#000000" stroke-width="1"/><polygon points="246.500000,232.500000 246.500000,228.500000 270.500000,240.500000 270.500000,244.500000 " fill="#ffaa22" stroke="#000000" stroke-width="1"/><polygon points="294.500000,232.500000 294.500000,228.500000 270.500000,240.500000 270.500000,244.500000 " fill="#cc7700" stroke="#000000" stroke-width="1"/><polygon points="246.500000,228.500000 270.500000,216.500000 294.500000,228.500000 270.500000,240.500000 " fill="#ffdd55" stroke="#000000" stroke-width="1"/><polygon points="822.500000,232.500000 822.500000,232.500000 846.500000,244.500000 846.500000,244.500000 " fill="#999999" stroke="#000000" stroke-width="1"/><polygon points="870.500000,232.500000 870.500000,232.500000 846.500000,244.500000 846.500000,244.500000 " fill="#666666" stroke="#000000" stroke-width="1"/><polygon points="822.500000,232.500000 846.500000,220.500000 870.500000,232.500000 846.500000,244.500000 " fill="#cccccc" stroke="#000000" stroke-width="1"/><polygon points="534.500000,248.500000 534.500000,248.500000 558.500000,260.500000 558.500000,260.500000 " fill="#999999" stroke="#000000" stroke-width="1"/><polygon points="582.500000,248.500000 582.500000,248.500000 558.500000,260.500000 558.500000,260.500000 " fill="#666666" stroke="#000000" stroke-width="1"/><polygon points="534.500000,248.500000 558.500000,236.500000 582.500000,248.500000 558.500000,260.500000 " fill="#cccccc" stroke="#000000" stroke-width="1"/><polygon points="470.500000,248.500000 470.500000,248.500000 494.500000,260.500000 494.500000,260.500000 " fill="#999999" stroke="#000000" stroke-width="1"/><polygon points="518.500000,248.500000 518.500000,248.500000 494.500000,260.500000 494.500000,260.500000 " fill="#666666" stroke="#000000" stroke-width="1"/><polygon points="470.500000,248.500000 494.500000,236.500000 518.500000,248.500000 494.500000,260.500000 " fill="#cccccc" stroke="#000000" stroke-width="1"/><polygon points="598.500000,248.500000 598.500000,248.500000 622.500000,260.500000 622.500000,260.500000 " fill="#999999" stroke="#000000" stroke-width="1"/><polygon points="646.500000,248.500000 646.500000,248.500000 622.500000,260.500000 622.500000,260.500000 " fill="#666666" stroke="#000000" stroke-width="1"/><polygon points="598.500000,248.500000 622.500000,236.500000 646.500000,248.500000 622.500000,260.500000 " fill="#cccccc" stroke="#000000" stroke-width="1"/><polygon points="406.500000,248.500000 406.500000,248.500000 430.500000,260.500000 430.500000,260.500000 " fill="#999999" stroke="#000000" stroke-width="1"/><polygon points="454.500000,248.500000 454.500000,248.500000 430.500000,260.500000 430.500000,260.500000 " fill="#666666" stroke="#000000" stroke-width="1"/><polygon points="406.500000,248.500000 430.500000,236.500000 454.500000,248.500000 430.500000,260.500000 " fill="#cccccc" stroke="#000000" stroke-width="1"/><polygon points="662.500000,248.500000 662.500000,244.500000 686.500000,256.500000 686.500000,260.500000 " fill="#dd2222" stroke="#000000" stroke-width="1"/><polygon points="710.500000,248.500000 710.500000,244.500000 686.500000,256.500000 686.500000,260.500000 " fill="#aa0000" stroke="#000000" stroke-width="1"/><polygon points="662.500000,244.500000 686.500000,232.500000 710.500000,244.500000 686.500000,256.500000 " fill="#ff5555" stroke="#000000" stroke-width="1"/><polygon points="342.500000,248.500000 342.500000,240.500000 366.500000,252.500000 366.500000,260.500000 " fill="#ffaa22" stroke="#000000" stroke-width="1"/><polygon points="390.500000,248.500000 390.500000,240.500000 366.500000,252.500000 366.500000,260.500000 " fill="#cc7700" stroke="#000000" stroke-width="1"/><polygon points="342.500000,240.500000 366.500000,228.500000 390.500000,240.500000 366.500000,252.500000 " fill="#ffdd55" stroke="#000000" stroke-width="1"/><polygon points="342.500000,248.500000 342.500000,244.500000 366.500000,256.500000 366.500000,260.500000 " fill="#dd2222" stroke="#000000" stroke-width="1"/><polygon points="390.500000,248.500000 390.500000,244.500000 366.500000,256.500000 366.500000,260.500000 " fill="#aa0000" stroke="#000000" stroke-width="1"/><polygon points="726.500000,248.500000 726.500000,248.500000 750.500000,260.500000 750.500000,260.500000 " fill="#999999" stroke="#000000" stroke-width="1"/><polygon points="774.500000,248.500000 774.500000,248.500000 750.500000,260.500000 750.500000,260.500000 " fill="#666666" stroke="#000000" stroke-width="1"/><polygon points="726.500000,248.500000 750.500000,236.500000 774.500000,248.500000 750.500000,260.500000 " fill="#cccccc" stroke="#000000" stroke-width="1"/><polygon points="278.500000,248.500000 278.500000,248.500000 302.500000,260.500000 302.500000,260.500000 " fill="#999999" stroke="#000000" stroke-width="1"/><polygon points="326.500000,248.500000 326.500000,248.500000 302.500000,260.500000 302.500000,260.500000 " fill="#666666" stroke="#000000" stroke-width="1"/><polygon points="278.500000,248.500000 302.500000,236.500000 326.500000,248.500000 302.500000,260.500000 " fill="#cccccc" stroke="#000000" stroke-width="1"/><polygon points="790.500000,248.500000 790.500000,248.500000 814.500000,260.500000 814.500000,260.500000 " fill="#999999" stroke="#000000" stroke-width="1"/><polygon points="838.500000,248.500000 838.500000,248.500000 814.500000,260.500000 814.500000,260.500000 " fill="#666666" stroke="#000000" stroke-width="1"/><polygon points="790.500000,248.500000 814.500000,236.500000 838.500000,248.500000 814.500000,260.500000 " fill="#cccccc" stroke="#000000" stroke-width="1"/><polygon points="214.500000,248.500000 214.500000,248.500000 238.500000,260.500000 238.500000,260.500000 " fill="#999999" stroke="#000000" stroke-width="1"/><polygon points="262.500000,248.500000 262.500000,248.500000 238.500000,260.500000 238.500000,260.500000 " fill="#666666" stroke="#000000" stroke-width="1"/><polygon points="214.500000,248.500000 238.500000,236.500000 262.500000,248.500000 238.500000,260.500000 " fill="#cccccc" stroke="#000000" stroke-width="1"/><polygon points="502.500000,264.500000 502.500000,264.500000 526.500000,276.500000 526.500000,276.500000 " fill="#999999" stroke="#000000" stroke-width="1"/><polygon points="550.500000,264.500000 550.500000,264.500000 526.500000,276.500000 526.500000,276.500000 " fill="#666666" stroke="#000000" stroke-width="1"/><polygon points="502.500000,264.500000 526.500000,252.500000 550.500000,264.500000 526.500000,276.500000 " fill="#cccccc" stroke="#000000" stroke-width="1"/><polygon points="566.500000,264.500000 566.500000,264.500000 590.500000,276.500000 590.500000,276.500000 " fill="#999999" stroke="#000000" stroke-width="1"/><polygon points="614.500000,264.500000 614.500000,264.500000 590.500000,276.500000 590.500000,276.500000 " fill="#666666" stroke="#000000" stroke-width="1"/><polygon points="566.500000,264.500000 590.500000,252.500000 614.500000,264.500000 590.500000,276.500000 " fill="#cccccc" stroke="#000000" stroke-width="1"/><polygon points="438.500000,264.500000 438.500000,264.500000 462.500000,276.500000 462.500000,276.500000 " fill="#999999" stroke="#000000" stroke-width="1"/><polygon points="486.500000,264.500000 486.500000,264.500000 462.500000,276.500000 462.500000,276.500000 " fill="#666666" stroke="#000000" stroke-width="1"/><polygon points="438.500000,264.500000 462.500000,252.500000 486.500000,264.500000 462.500000,276.500000 " fill="#cccccc" stroke="#000000" stroke-width="1"/><polygon points="630.500000,264.500000 630.500000,264.500000 654.500000,276.500000 654.500000,276.500000 " fill="#999999" stroke="#000000" stroke-width="1"/><polygon points="678.500000,264.500000 678.500000,264.500000 654.500000,276.500000 654.500000,276.500000 " fill="#666666" stroke="#000000" stroke-width="1"/><polygon points="630.500000,264.500000 654.500000,252.500000 678.500000,264.500000 654.500000,276.500000 " fill="#cccccc" stroke="#000000" stroke-width="1"/><polygon points="374.500000,264.500000 374.500000,264.500000 398.500000,276.500000 398.500000,276.500000 " fill="#999999" stroke="#000000" stroke-width="1"/><polygon points="422.500000,264.500000 422.500000,264.500000 398.500000,276.500000 398.500000,276.500000 " fill="#666666" stroke="#000000" stroke-width="1"/><polygon points="374.500000,264.500000 398.500000,252.500000 422.500000,264.500000 398.500000,276.500000 " fill="#cccccc" stroke="#000000" stroke-width="1"/><polygon points="694.500000,264.500000 694.500000,252.500000 718.500000,264.500000 718.500000,276.500000 " fill="#ffaa22" stroke="#000000" stroke-width="1"/><polygon points="742.500000,264.500000 742.500000,252.500000 718.500000,264.500000 718.500000,276.500000 " fill="#cc7700" stroke="#000000" stroke-width="1"/><polygon points="694.500000,252.500000 718.500000,240.500000 742.500000,252.500000 718.500000,264.500000 " fill="#ffdd55" stroke="#000000" stroke-width="1"/><polygon points="694.500000,264.500000 694.500000,260.500000 718.500000,272.500000 718.500000,276.500000 " fill="#dd2222" stroke="#000000" stroke-width="1"/><polygon points="742.500000,264.500000 742.500000,260.500000 718.500000,272.500000 718.500000,276.500000 " fill="#aa0000" stroke="#000000" stroke-width="1"/><polygon points="310.500000,264.500000 310.500000,256.500000 334.500000,268.500000 334.500000,276.500000 " fill="#ffaa22" stroke="#000000" stroke-width="1"/><polygon points="358.500000,264.500000 358.500000,256.500000 334.500000,268.500000 334.500000,276.500000 " fill="#cc7700" stroke="#000000" stroke-width="1"/><polygon points="310.500000,256.500000 334.500000,244.500000 358.500000,256.500000 334.500000,268.500000 " fill="#ffdd55" stroke="#000000" stroke-width="1"/><polygon points="310.500000,264.500000 310.500000,260.500000 334.500000,272.500000 334.500000,276.500000 " fill="#dd2222" stroke="#000000" stroke-width="1"/><polygon points="358.500000,264.500000 358.500000,260.500000 334.500000,272.500000 334.500000,276.500000 " fill="#aa0000" stroke="#000000" stroke-width="1"/><polygon points="758.500000,264.500000 758.500000,264.500000 782.500000,276.500000 782.500000,276.500000 " fill="#999999" stroke="#000000" stroke-width="1"/><polygon points="806.500000,264.500000 806.500000,264.500000 782.500000,276.500000 782.500000,276.500000 " fill="#666666" stroke="#000000" stroke-width="1"/><polygon points="758.500000,264.500000 782.500000,252.500000 806.500000,264.500000 782.500000,276.500000 " fill="#cccccc" stroke="#000000" stroke-width="1"/><polygon points="246.500000,264.500000 246.500000,264.500000 270.500000,276.500000 270.500000,276.500000 " fill="#999999" stroke="#000000" stroke-width="1"/><polygon points="294.500000,264.500000 294.500000,264.500000 270.500000,276.500000 270.500000,276.500000 " fill="#666666" stroke="#000000" stroke-width="1"/><polygon points="246.500000,264.500000 270.500000,252.500000 294.500000,264.500000 270.500000,276.500000 " fill="#cccccc" stroke="#000000" stroke-width="1"/><polygon points="886.500000,264.500000 886.500000,196.500000 910.500000,208.500000 910.500000,276.500000 " fill="#ffaa22" stroke="#000000" stroke-width="1"/><polygon points="934.500000,264.500000 934.500000,196.500000 910.500000,208.500000 910.500000,276.500000 " fill="#cc7700" stroke="#000000" stroke-width="1"/><polygon points="886.500000,196.500000 910.500000,184.500000 934.500000,196.500000 910.500000,208.500000 " fill="#ffdd55" stroke="#000000" stroke-width="1"/><polygon points="886.500000,264.500000 886.500000,220.500000 910.500000,232.500000 910.500000,276.500000 " fill="#dd2222" stroke="#000000" stroke-width="1"/><polygon points="934.500000,264.500000 934.500000,220.500000 910.500000,232.500000 910.500000,276.500000 " fill="#aa0000" stroke="#000000" stroke-width="1"/><polygon points="534.500000,280.500000 534.500000,280.500000 558.500000,292.500000 558.500000,292.500000 " fill="#999999" stroke="#000000" stroke-width="1"/><polygon points="582.500000,280.500000 582.500000,280.500000 558.500000,292.500000 558.500000,292.500000 " fill="#666666" stroke="#000000" stroke-width="1"/><polygon points="534.500000,280.500000 558.500000,268.500000 582.500000,280.500000 558.500000,292.500000 " fill="#cccccc" stroke="#000000" stroke-width="1"/><polygon points="470.500000,280.500000 470.500000,256.500000 494.500000,268.500000 494.500000,292.500000 " fill="#ffaa22" stroke="#000000" stroke-width="1"/><polygon points="518.500000,280.500000 518.500000,256.500000 494.500000,268.500000 494.500000,292.500000 " fill="#cc7700" stroke="#000000" stroke-width="1"/><polygon points="470.500000,256.500000 494.500000,244.500000 518.500000,256.500000 494.500000,268.500000 " fill="#ffdd55" stroke="#000000" stroke-width="1"/><polygon points="470.500000,280.500000 470.500000,264.500000 494.500000,276.500000 494.500000,292.500000 " fill="#dd2222" stroke="#000000" stroke-width="1"/><polygon points="518.500000,280.500000 518.500000,264.500000 494.500000,276.500000 494.500000,292.500000 " fill="#aa0000" stroke="#000000" stroke-width="1"/><polygon points="598.500000,280.500000 598.500000,276.500000 622.500000,288.500000 622.500000,292.500000 " fill="#ffaa22" stroke="#000000" stroke-width="1"/><polygon points="646.500000,280.500000 646.500000,276.500000 622.500000,288.500000 622.500000,292.500000 " fill="#cc7700" stroke="#000000" stroke-width="1"/><polygon points="598.500000,276.500000 622.500000,264.500000 646.500000,276.500000 622.500000,288.500000 " fill="#ffdd55" stroke="#000000" stroke-width="1"/><polygon points="406.500000,280.500000 406.500000,280.500000 430.500000,292.500000 430.500000,292.500000 " fill="#999999" stroke="#000000" stroke-width="1"/><polygon points="454.500000,280.500000 454.500000,280.500000 430.500000,292.500000 430.500000,292.500000 " fill="#666666" stroke="#000000" stroke-width="1"/><polygon points="406.500000,280.500000 430.500000,268.500000 454.500000,280.500000 430.500000,292.500000 " fill="#cccccc" stroke="#000000" stroke-width="1"/><polygon points="662.500000,280.500000 662.500000,276.500000 686.500000,288.500000 686.500000,292.500000 " fill="#ffaa22" stroke="#000000" stroke-width="1"/><polygon points="710.500000,280.500000 710.500000,276.500000 686.500000,288.500000 686.500000,292.500000 " fill="#cc7700" stroke="#000000" stroke-width="1"/><polygon points="662.500000,276.500000 686.500000,264.500000 710.500000,276.500000 686.500000,288.500000 " fill="#ffdd55" stroke="#000000" stroke-width="1"/><polygon points="342.500000,280.500000 342.500000,276.500000 366.500000,288.500000 366.500000,292.500000 " fill="#ffaa22" stroke="#000000" stroke-width="1"/><polygon points="390.500000,280.500000 390.500000,276.500000 366.500000,288.500000 366.500000,292.500000 " fill="#cc7700" stroke="#000000" stroke-width="1"/><polygon points="342.500000,276.500000 366.500000,264.500000 390.500000,276.500000 366.500000,288.500000 " fill="#ffdd55" stroke="#000000" stroke-width="1"/><polygon points="726.500000,280.500000 726.500000,280.500000 750.500000,292.500000 750.500000,292.500000 " fill="#999999" stroke="#000000" stroke-width="1"/><polygon points="774.500000,280.500000 774.500000,280.500000 750.500000,292.500000 750.500000,292.500000 " fill="#666666" stroke="#000000" stroke-width="1"/><polygon points="726.500000,280.500000 750.500000,268.500000 774.500000,280.500000 750.500000,292.500000 " fill="#cccccc" stroke="#000000" stroke-width="1"/><polygon points="278.500000,280.500000 278.500000,280.500000 302.500000,292.500000 302.500000,292.500000 " fill="#999999" stroke="#000000" stroke-width="1"/><polygon points="326.500000,280.500000 326.500000,280.500000 302.500000,292.500000 302.500000,292.500000 " fill="#666666" stroke="#000000" stroke-width="1"/><polygon points="278.500000,280.500000 302.500000,268.500000 326.500000,280.500000 302.500000,292.500000 " fill="#cccccc" stroke="#000000" stroke-width="1"/><polygon points="150.500000,280.500000 150.500000,260.500000 174.500000,272.500000 174.500000,292.500000 " fill="#ffaa22" stroke="#000000" stroke-width="1"/><polygon points="198.500000,280.500000 198.500000,260.500000 174.500000,272.500000 174.500000,292.500000 " fill="#cc7700" stroke="#000000" stroke-width="1"/><polygon points="150.500000,260.500000 174.500000,248.500000 198.500000,260.500000 174.500000,272.500000 " fill="#ffdd55" stroke="#000000" stroke-width="1"/><polygon points="150.500000,280.500000 150.500000,264.500000 174.500000,276.500000 174.500000,292.500000 " fill="#dd2222" stroke="#000000" stroke-width="1"/><polygon points="198.500000,280.500000 198.500000,264.500000 174.500000,276.500000 174.500000,292.500000 " fill="#aa0000" stroke="#000000" stroke-width="1"/><polygon points="866.500000,274.500000 866.500000,274.500000 878.500000,280.500000 878.500000,280.500000 " fill="#999999" stroke="#000000" stroke-width="1"/><polygon points="890.500000,274.500000 890.500000,274.500000 878.500000,280.500000 878.500000,280.500000 " fill="#666666" stroke="#000000" stroke-width="1"/><polygon points="866.500000,274.500000 878.500000,268.500000 890.500000,274.500000 878.500000,280.500000 " fill="#cccccc" stroke="#000000" stroke-width="1"/><polygon points="930.500000,274.500000 930.500000,274.500000 942.500000,280.500000 942.500000,280.500000 " fill="#999999" stroke="#000000" stroke-width="1"/><polygon points="954.500000,274.500000 954.500000,274.500000 942.500000,280.500000 942.500000,280.500000 " fill="#666666" stroke="#000000" stroke-width="1"/><polygon points="930.500000,274.500000 942.500000,268.500000 954.500000,274.500000 942.500000,280.500000 " fill="#cccccc" stroke="#000000" stroke-width="1"/><polygon points="914.500000,282.500000 914.500000,282.500000 926.500000,288.500000 926.500000,288.500000 " fill="#999999" stroke="#000000" stroke-width="1"/><polygon points="938.500000,282.500000 938.500000,282.500000 926.500000,288.500000 926.500000,288.500000 " fill="#666666" stroke="#000000" stroke-width="1"/><polygon points="914.500000,282.500000 926.500000,276.500000 938.500000,282.500000 926.500000,288.500000 " fill="#cccccc" stroke="#000000" stroke-width="1"/><polygon points="882.500000,282.500000 882.500000,270.500000 894.500000,276.500000 894.500000,288.500000 " fill="#ffaa22" stroke="#000000" stroke-width="1"/><polygon points="906.500000,282.500000 906.500000,270.500000 894.500000,276.500000 894.500000,288.500000 " fill="#cc7700" stroke="#000000" stroke-width="1"/><polygon points="882.500000,270.500000 894.500000,264.500000 906.500000,270.500000 894.500000,276.500000 " fill="#ffdd55" stroke="#000000" stroke-width="1"/><polygon points="946.500000,282.500000 946.500000,282.500000 958.500000,288.500000 958.500000,288.500000 " fill="#999999" stroke="#000000" stroke-width="1"/><polygon points="970.500000,282.500000 970.500000,282.500000 958.500000,288.500000 958.500000,288.500000 " fill="#666666" stroke="#000000" stroke-width="1"/><polygon points="946.500000,282.500000 958.500000,276.500000 970.500000,282.500000 958.500000,288.500000 " fill="#cccccc" stroke="#000000" stroke-width="1"/><polygon points="850.500000,282.500000 850.500000,282.500000 862.500000,288.500000 862.500000,288.500000 " fill="#999999" stroke="#000000" stroke-width="1"/><polygon points="874.500000,282.500000 874.500000,282.500000 862.500000,288.500000 862.500000,288.500000 " fill="#666666" stroke="#000000" stroke-width="1"/><polygon points="850.500000,282.500000 862.500000,276.500000 874.500000,282.500000 862.500000,288.500000 " fill="#cccccc" stroke="#000000" stroke-width="1"/><polygon points="502.500000,296.500000 502.500000,296.500000 526.500000,308.500000 526.500000,308.500000 " fill="#999999" stroke="#000000" stroke-width="1"/><polygon points="550.500000,296.500000 550.500000,296.500000 526.500000,308.500000 526.500000,308.500000 " fill="#666666" stroke="#000000" stroke-width="1"/><polygon points="502.500000,296.500000 526.500000,284.500000 550.500000,296.500000 526.500000,308.500000 " fill="#cccccc" stroke="#000000" stroke-width="1"/><polygon points="566.500000,296.500000 566.500000,264.500000 590.500000,276.500000 590.500000,308.500000 " fill="#ffaa22" stroke="#000000" stroke-width="1"/><polygon points="614.500000,296.500000 614.500000,264.500000 590.500000,276.500000 590.500000,308.500000 " fill="#cc7700" stroke="#000000" stroke-width="1"/><polygon points="566.500000,264.500000 590.500000,252.500000 614.500000,264.500000 590.500000,276.500000 " fill="#ffdd55" stroke="#000000" stroke-width="1"/><polygon points="566.500000,296.500000 566.500000,292.500000 590.500000,304.500000 590.500000,308.500000 " fill="#dd2222" stroke="#000000" stroke-width="1"/><polygon points="614.500000,296.500000 614.500000,292.500000 590.500000,304.500000 590.500000,308.500000 " fill="#aa0000" stroke="#000000" stroke-width="1"/><polygon points="438.500000,296.500000 438.500000,296.500000 462.500000,308.500000 462.500000,308.500000 " fill="#999999" stroke="#000000" stroke-width="1"/><polygon points="486.500000,296.500000 486.500000,296.500000 462.500000,308.500000 462.500000,308.500000 " fill="#666666" stroke="#000000" stroke-width="1"/><polygon points="438.500000,296.500000 462.500000,284.500000 486.500000,296.500000 462.500000,308.500000 " fill="#cccccc" stroke="#000000" stroke-width="1"/><polygon points="630.500000,296.500000 630.500000,292.500000 654.500000,304.500000 654.500000,308.500000 " fill="#ffaa22" stroke="#000000" stroke-width="1"/><polygon points="678.500000,296.500000 678.500000,292.500000 654.500000,304.500000 654.500000,308.500000 " fill="#cc7700" stroke="#000000" stroke-width="1"/><polygon points="630.500000,292.500000 654.500000,280.500000 678.500000,292.500000 654.500000,304.500000 " fill="#ffdd55" stroke="#000000" stroke-width="1"/><polygon points="374.500000,296.500000 374.500000,292.500000 398.500000,304.500000 398.500000,308.500000 " fill="#ffaa22" stroke="#000000" stroke-width="1"/><polygon points="422.500000,296.500000 422.500000,292.500000 398.500000,304.500000 398.500000,308.500000 " fill="#cc7700" stroke="#000000" stroke-width="1"/><polygon points="374.500000,292.500000 398.500000,280.500000 422.500000,292.500000 398.500000,304.500000 " fill="#ffdd55" stroke="#000000" stroke-width="1"/><polygon points="694.500000,296.500000 694.500000,296.500000 718.500000,308.500000 718.500000,308.500000 " fill="#999999" stroke="#000000" stroke-width="1"/><polygon points="742.500000,296.500000 742.500000,296.500000 718.500000,308.500000 718.500000,308.500000 " fill="#666666" stroke="#000000" stroke-width="1"/><polygon points="694.500000,296.500000 718.500000,284.500000 742.500000,296.500000 718.500000,308.500000 " fill="#cccccc" stroke="#000000" stroke-width="1"/><polygon points="310.500000,296.500000 310.500000,276.500000 334.500000,288.500000 334.500000,308.500000 " fill="#ffaa22" stroke="#000000" stroke-width="1"/><polygon points="358.500000,296.500000 358.500000,276.500000 334.500000,288.500000 334.500000,308.500000 " fill="#cc7700" stroke="#000000" stroke-width="1"/><polygon points="310.500000,276.500000 334.500000,264.500000 358.500000,276.500000 334.500000,288.500000 " fill="#ffdd55" stroke="#000000" stroke-width="1"/><polygon points="194.500000,290.500000 194.500000,290.500000 206.500000,296.500000 206.500000,296.500000 " fill="#999999" stroke="#000000" stroke-width="1"/><polygon points="218.500000,290.500000 218.500000,290.500000 206.500000,296.500000 206.500000,296.500000 " fill="#666666" stroke="#000000" stroke-width="1"/><polygon points="194.500000,290.500000 206.500000,284.500000 218.500000,290.500000 206.500000,296.500000 " fill="#cccccc" stroke="#000000" stroke-width="1"/><polygon points="130.500000,290.500000 130.500000,290.500000 142.500000,296.500000 142.500000,296.500000 " fill="#999999" stroke="#000000" stroke-width="1"/><polygon points="154.500000,290.500000 154.500000,290.500000 142.500000,296.500000 142.500000,296.500000 " fill="#666666" stroke="#000000" stroke-width="1"/><polygon points="130.500000,290.500000 142.500000,284.500000 154.500000,290.500000 142.500000,296.500000 " fill="#cccccc" stroke="#000000" stroke-width="1"/><polygon points="898.500000,290.500000 898.500000,286.500000 910.500000,292.500000 910.500000,296.500000 " fill="#ffaa22" stroke="#000000" stroke-width="1"/><polygon points="922.500000,290.500000 922.500000,286.500000 910.500000,292.500000 910.500000,296.500000 " fill="#cc7700" stroke="#000000" stroke-width="1"/><polygon points="898.500000,286.500000 910.500000,280.500000 922.500000,286.500000 910.500000,292.500000 " fill="#ffdd55" stroke="#000000" stroke-width="1"/><polygon points="930.500000,290.500000 930.500000,290.500000 942.500000,296.500000 942.500000,296.500000 " fill="#999999" stroke="#000000" stroke-width="1"/><polygon points="954.500000,290.500000 954.500000,290.500000 942.500000,296.500000 942.500000,296.500000 " fill="#666666" stroke="#000000" stroke-width="1"/><polygon points="930.500000,290.500000 942.500000,284.500000 954.500000,290.500000 942.500000,296.500000 " fill="#cccccc" stroke="#000000" stroke-width="1"/><polygon points="866.500000,290.500000 866.500000,290.500000 878.500000,296.500000 878.500000,296.500000 " fill="#999999" stroke="#000000" stroke-width="1"/><polygon points="890.500000,290.500000 890.500000,290.500000 878.500000,296.500000 878.500000,296.500000 " fill="#666666" stroke="#000000" stroke-width="1"/><polygon points="866.500000,290.500000 878.500000,284.500000 890.500000,290.500000 878.500000,296.500000 " fill="#cccccc" stroke="#000000" stroke-width="1"/><polygon points="962.500000,290.500000 962.500000,290.500000 974.500000,296.500000 974.500000,296.500000 " fill="#999999" stroke="#000000" stroke-width="1"/><polygon points="986.500000,290.500000 986.500000,290.500000 974.500000,296.500000 974.500000,296.500000 " fill="#666666" stroke="#000000" stroke-width="1"/><polygon points="962.500000,290.500000 974.500000,284.500000 986.500000,290.500000 974.500000,296.500000 " fill="#cccccc" stroke="#000000" stroke-width="1"/><polygon points="914.500000,298.500000 914.500000,298.500000 926.500000,304.500000 926.500000,304.500000 " fill="#999999" stroke="#000000" stroke-width="1"/><polygon points="938.500000,298.500000 938.500000,298.500000 926.500000,304.500000 926.500000,304.500000 " fill="#666666" stroke="#000000" stroke-width="1"/><polygon points="914.500000,298.500000 926.500000,292.500000 938.500000,298.500000 926.500000,304.500000 " fill="#cccccc" stroke="#000000" stroke-width="1"/><polygon points="882.500000,298.500000 882.500000,298.500000 894.500000,304.500000 894.500000,304.500000 " fill="#999999" stroke="#000000" stroke-width="1"/><polygon points="906.500000,298.500000 906.500000,298.500000 894.500000,304.500000 894.500000,304.500000 " fill="#666666" stroke="#000000" stroke-width="1"/><polygon points="882.500000,298.500000 894.500000,292.500000 906.500000,298.500000 894.500000,304.500000 " fill="#cccccc" stroke="#000000" stroke-width="1"/><polygon points="534.500000,312.500000 534.500000,312.500000 558.500000,324.500000 558.500000,324.500000 " fill="#999999" stroke="#000000" stroke-width="1"/><polygon points="582.500000,312.500000 582.500000,312.500000 558.500000,324.500000 558.500000,324.500000 " fill="#666666" stroke="#000000" stroke-width="1"/><polygon points="534.500000,312.500000 558.500000,300.500000 582.500000,312.500000 558.500000,324.500000 " fill="#cccccc" stroke="#000000" stroke-width="1"/><polygon points="470.500000,312.500000 470.500000,312.500000 494.500000,324.500000 494.500000,324.500000 " fill="#999999" stroke="#000000" stroke-width="1"/><polygon points="518.500000,312.500000 518.500000,312.500000 494.500000,324.500000 494.500000,324.500000 " fill="#666666" stroke="#000000" stroke-width="1"/><polygon points="470.500000,312.500000 494.500000,300.500000 518.500000,312.500000 494.500000,324.500000 " fill="#cccccc" stroke="#000000" stroke-width="1"/><polygon points="598.500000,312.500000 598.500000,312.500000 622.500000,324.500000 622.500000,324.500000 " fill="#999999" stroke="#000000" stroke-width="1"/><polygon points="646.500000,312.500000 646.500000,312.500000 622.500000,324.500000 622.500000,324.500000 " fill="#666666" stroke="#000000" stroke-width="1"/><polygon points="598.500000,312.500000 622.500000,300.500000 646.500000,312.500000 622.500000,324.500000 " fill="#cccccc" stroke="#000000" stroke-width="1"/><polygon points="406.500000,312.500000 406.500000,300.500000 430.500000,312.500000 430.500000,324.500000 " fill="#dd2222" stroke="#000000" stroke-width="1"/><polygon points="454.500000,312.500000 454.500000,300.500000 430.500000,312.500000 430.500000,324.500000 " fill="#aa0000" stroke="#000000" stroke-width="1"/><polygon points="406.500000,300.500000 430.500000,288.500000 454.500000,300.500000 430.500000,312.500000 " fill="#ff5555" stroke="#000000" stroke-width="1"/><polygon points="662.500000,312.500000 662.500000,304.500000 686.500000,316.500000 686.500000,324.500000 " fill="#ffaa22" stroke="#000000" stroke-width="1"/><polygon points="710.500000,312.500000 710.500000,304.500000 686.500000,316.500000 686.500000,324.500000 " fill="#cc7700" stroke="#000000" stroke-width="1"/><polygon points="662.500000,304.500000 686.500000,292.500000 710.500000,304.500000 686.500000,316.500000 " fill="#ffdd55" stroke="#000000" stroke-width="1"/><polygon points="342.500000,312.500000 342.500000,252.500000 366.500000,264.500000 366.500000,324.500000 " fill="#ffaa22" stroke="#000000" stroke-width="1"/><polygon points="390.500000,312.500000 390.500000,252.500000 366.500000,264.500000 366.500000,324.500000 " fill="#cc7700" stroke="#000000" stroke-width="1"/><polygon points="342.500000,252.500000 366.500000,240.500000 390.500000,252.500000 366.500000,264.500000 " fill="#ffdd55" stroke="#000000" stroke-width="1"/><polygon points="342.500000,312.500000 342.500000,264.500000 366.500000,276.500000 366.500000,324.500000 " fill="#dd2222" stroke="#000000" stroke-width="1"/><polygon points="390.500000,312.500000 390.500000,264.500000 366.500000,276.500000 366.500000,324.500000 " fill="#aa0000" stroke="#000000" stroke-width="1"/><polygon points="502.500000,328.500000 502.500000,292.500000 526.500000,304.500000 526.500000,340.500000 " fill="#ffaa22" stroke="#000000" stroke-width="1"/><polygon points="550.500000,328.500000 550.500000,292.500000 526.500000,304.500000 526.500000,340.500000 " fill="#cc7700" stroke="#000000" stroke-width="1"/><polygon points="502.500000,292.500000 526.500000,280.500000 550.500000,292.500000 526.500000,304.500000 " fill="#ffdd55" stroke="#000000" stroke-width="1"/><polygon points="502.500000,328.500000 502.500000,304.500000 526.500000,316.500000 526.500000,340.500000 " fill="#dd2222" stroke="#000000" stroke-width="1"/><polygon points="550.500000,328.500000 550.500000,304.500000 526.500000,316.500000 526.500000,340.500000 " fill="#aa0000" stroke="#000000" stroke-width="1"/><polygon points="566.500000,328.500000 566.500000,328.500000 590.500000,340.500000 590.500000,340.500000 " fill="#999999" stroke="#000000" stroke-width="1"/><polygon points="614.500000,328.500000 614.500000,328.500000 590.500000,340.500000 590.500000,340.500000 " fill="#666666" stroke="#000000" stroke-width="1"/><polygon points="566.500000,328.500000 590.500000,316.500000 614.500000,328.500000 590.500000,340.500000 " fill="#cccccc" stroke="#000000" stroke-width="1"/><polygon points="438.500000,328.500000 438.500000,328.500000 462.500000,340.500000 462.500000,340.500000 " fill="#999999" stroke="#000000" stroke-width="1"/><polygon points="486.500000,328.500000 486.500000,328.500000 462.500000,340.500000 462.500000,340.500000 " fill="#666666" stroke="#000000" stroke-width="1"/><polygon points="438.500000,328.500000 462.500000,316.500000 486.500000,328.500000 462.500000,340.500000 " fill="#cccccc" stroke="#000000" stroke-width="1"/><polygon points="630.500000,328.500000 630.500000,268.500000 654.500000,280.500000 654.500000,340.500000 " fill="#ffaa22" stroke="#000000" stroke-width="1"/><polygon points="678.500000,328.500000 678.500000,268.500000 654.500000,280.500000 654.500000,340.500000 " fill="#cc7700" stroke="#000000" stroke-width="1"/><polygon points="630.500000,268.500000 654.500000,256.500000 678.500000,268.500000 654.500000,280.500000 " fill="#ffdd55" stroke="#000000" stroke-width="1"/><polygon points="630.500000,328.500000 630.500000,288.500000 654.500000,300.500000 654.500000,340.500000 " fill="#dd2222" stroke="#000000" stroke-width="1"/><polygon points="678.500000,328.500000 678.500000,288.500000 654.500000,300.500000 654.500000,340.500000 " fill="#aa0000" stroke="#000000" stroke-width="1"/><polygon points="386.500000,322.500000 386.500000,322.500000 398.500000,328.500000 398.500000,328.500000 " fill="#999999" stroke="#000000" stroke-width="1"/><polygon points="410.500000,322.500000 410.500000,322.500000 398.500000,328.500000 398.500000,328.500000 " fill="#666666" stroke="#000000" stroke-width="1"/><polygon points="386.500000,322.500000 398.500000,316.500000 410.500000,322.500000 398.500000,328.500000 " fill="#cccccc" stroke="#000000" stroke-width="1"/><polygon points="322.500000,322.500000 322.500000,322.500000 334.500000,328.500000 334.500000,328.500000 " fill="#999999" stroke="#000000" stroke-width="1"/><polygon points="346.500000,322.500000 346.500000,322.500000 334.500000,328.500000 334.500000,328.500000 " fill="#666666" stroke="#000000" stroke-width="1"/><polygon points="322.500000,322.500000 334.500000,316.500000 346.500000,322.500000 334.500000,328.500000 " fill="#cccccc" stroke="#000000" stroke-width="1"/><polygon points="534.500000,344.500000 534.500000,344.500000 558.500000,356.500000 558.500000,356.500000 " fill="#999999" stroke="#000000" stroke-width="1"/><polygon points="582.500000,344.500000 582.500000,344.500000 558.500000,356.500000 558.500000,356.500000 " fill="#666666" stroke="#000000" stroke-width="1"/><polygon points="534.500000,344.500000 558.500000,332.500000 582.500000,344.500000 558.500000,356.500000 " fill="#cccccc" stroke="#000000" stroke-width="1"/><polygon points="470.500000,344.500000 470.500000,332.500000 494.500000,344.500000 494.500000,356.500000 " fill="#dd2222" stroke="#000000" stroke-width="1"/><polygon points="518.500000,344.500000 518.500000,332.500000 494.500000,344.500000 494.500000,356.500000 " fill="#aa0000" stroke="#000000" stroke-width="1"/><polygon points="470.500000,332.500000 494.500000,320.500000 518.500000,332.500000 494.500000,344.500000 " fill="#ff5555" stroke="#000000" stroke-width="1"/><polygon points="610.500000,338.500000 610.500000,338.500000 622.500000,344.500000 622.500000,344.500000 " fill="#999999" stroke="#000000" stroke-width="1"/><polygon points="634.500000,338.500000 634.500000,338.500000 622.500000,344.500000 622.500000,344.500000 " fill="#666666" stroke="#000000" stroke-width="1"/><polygon points="610.500000,338.500000 622.500000,332.500000 634.500000,338.500000 622.500000,344.500000 " fill="#cccccc" stroke="#000000" stroke-width="1"/><polygon points="674.500000,338.500000 674.500000,338.500000 686.500000,344.500000 686.500000,344.500000 " fill="#999999" stroke="#000000" stroke-width="1"/><polygon points="698.500000,338.500000 698.500000,338.500000 686.500000,344.500000 686.500000,344.500000 " fill="#666666" stroke="#000000" stroke-width="1"/><polygon points="674.500000,338.500000 686.500000,332.500000 698.500000,338.500000 686.500000,344.500000 " fill="#cccccc" stroke="#000000" stroke-width="1"/><polygon points="502.500000,360.500000 502.500000,348.500000 526.500000,360.500000 526.500000,372.500000 " fill="#ffaa22" stroke="#000000" stroke-width="1"/><polygon points="550.500000,360.500000 550.500000,348.500000 526.500000,360.500000 526.500000,372.500000 " fill="#cc7700" stroke="#000000" stroke-width="1"/><polygon points="502.500000,348.500000 526.500000,336.500000 550.500000,348.500000 526.500000,360.500000 " fill="#ffdd55" stroke="#000000" stroke-width="1"/><text clip-path="url(#1)" x="510" y="58" stroke="#ffffff" stroke-width="2" paint-order="stroke" stroke-opacity="0.75"><tspan x="558.000000" text-anchor="middle">Public Sector </tspan></text><clipPath id="1"><rect x="509" y="49" width="97" height="14"/></clipPath></svg>
